<svg xmlns="http://www.w3.org/2000/svg" viewBox="0 0 56.474 64" width="56.474" height="64"><path fill="#b61b50" d="M30.193 0.524L54.518 14.568A3.913 3.913 0 0 1 56.474 17.956L56.474 46.044A3.913 3.913 0 0 1 54.518 49.432L30.193 63.476A3.913 3.913 0 0 1 26.281 63.476L1.956 49.432A3.913 3.913 0 0 1 0 46.044L0 17.956A3.913 3.913 0 0 1 1.956 14.568L26.281 0.524A3.913 3.913 0 0 1 30.193 0.524Z"/><path fill="#ffffff" d="M31.287 16.752H19.401C18.492 16.752 17.71 17.393 17.532 18.284L16.313 24.376H12.989V27.426H16.204L18.297 45.56C18.408 46.522 19.222 47.248 20.19 47.248H36.284C37.252 47.248 38.066 46.522 38.177 45.56L40.269 27.426H43.485V24.376H40.161L38.942 18.284C38.764 17.393 37.982 16.752 37.073 16.752H34.336V13.702H31.287V16.752ZM37.051 24.376H19.423L20.338 19.802H36.136L37.051 24.376ZM19.274 27.426H37.2L35.264 44.198H21.21L19.274 27.426Z"/></svg>
