<svg xmlns="http://www.w3.org/2000/svg" viewBox="0 0 56.474 64" width="56.474" height="64"><path fill="#1ab9e2" d="M30.193 0.524L54.518 14.568A3.913 3.913 0 0 1 56.474 17.956L56.474 46.044A3.913 3.913 0 0 1 54.518 49.432L30.193 63.476A3.913 3.913 0 0 1 26.281 63.476L1.956 49.432A3.913 3.913 0 0 1 0 46.044L0 17.956A3.913 3.913 0 0 1 1.956 14.568L26.281 0.524A3.913 3.913 0 0 1 30.193 0.524Z"/><path fill="#ffffff" d="M26.712 21.326V36.574H23.663V30.475C20.294 30.475 17.563 27.745 17.563 24.376C17.563 21.008 20.294 18.277 23.663 18.277H35.861V21.326H32.811V36.574H29.762V21.326H26.712ZM23.663 21.326C21.978 21.326 20.613 22.692 20.613 24.376C20.613 26.06 21.978 27.426 23.663 27.426V21.326ZM20.613 39.624H38.911V42.674H20.613V46.486L14.514 41.149L20.613 35.812V39.624Z"/></svg>
