<svg xmlns="http://www.w3.org/2000/svg" viewBox="0 0 56.474 64" width="56.474" height="64"><path fill="#303030" d="M30.193 0.524L54.518 14.568A3.913 3.913 0 0 1 56.474 17.956L56.474 46.044A3.913 3.913 0 0 1 54.518 49.432L30.193 63.476A3.913 3.913 0 0 1 26.281 63.476L1.956 49.432A3.913 3.913 0 0 1 0 46.044L0 17.956A3.913 3.913 0 0 1 1.956 14.568L26.281 0.524A3.913 3.913 0 0 1 30.193 0.524Z"/><path fill="#ffffff" d="M25.149 27.387C27.233 25.303 27.233 21.924 25.149 19.84C23.065 17.756 19.686 17.756 17.602 19.84C15.518 21.924 15.518 25.303 17.602 27.387L21.375 31.161L25.149 27.387ZM21.375 35.474L15.445 29.544C12.17 26.269 12.17 20.959 15.445 17.684C18.72 14.408 24.03 14.408 27.306 17.684C30.581 20.959 30.581 26.269 27.306 29.544L21.375 35.474ZM21.375 25.901C20.112 25.901 19.088 24.877 19.088 23.614C19.088 22.35 20.112 21.326 21.375 21.326C22.639 21.326 23.663 22.35 23.663 23.614C23.663 24.877 22.639 25.901 21.375 25.901ZM35.099 44.884L38.872 41.111C40.956 39.026 40.956 35.647 38.872 33.563C36.788 31.479 33.409 31.479 31.325 33.563C29.241 35.647 29.241 39.026 31.325 41.111L35.099 44.884ZM41.029 43.267L35.099 49.197L29.169 43.267C25.893 39.992 25.893 34.682 29.169 31.407C32.444 28.132 37.754 28.132 41.029 31.407C44.304 34.682 44.304 39.992 41.029 43.267ZM35.099 39.624C33.835 39.624 32.811 38.6 32.811 37.337C32.811 36.074 33.835 35.05 35.099 35.05C36.362 35.05 37.386 36.074 37.386 37.337C37.386 38.6 36.362 39.624 35.099 39.624Z"/></svg>
