<svg xmlns="http://www.w3.org/2000/svg" viewBox="0 0 56.474 64" width="56.474" height="64"><path fill="#ffffff" fill-rule="evenodd" d="M30.193 0.524L54.518 14.568A3.913 3.913 0 0 1 56.474 17.956L56.474 46.044A3.913 3.913 0 0 1 54.518 49.432L30.193 63.476A3.913 3.913 0 0 1 26.281 63.476L1.956 49.432A3.913 3.913 0 0 1 0 46.044L0 17.956A3.913 3.913 0 0 1 1.956 14.568L26.281 0.524A3.913 3.913 0 0 1 30.193 0.524ZM28.237 22.851C29.5 22.851 30.524 21.827 30.524 20.564C30.524 19.301 29.5 18.277 28.237 18.277C26.974 18.277 25.95 19.301 25.95 20.564C25.95 21.827 26.974 22.851 28.237 22.851ZM23.663 28.95H26.712V41.149H23.663V44.198H32.811V41.149H29.762V25.901H23.663V28.95Z"/></svg>
